# Blender v2.79 (sub 0) OBJ File: 'ico.blend'
# www.blender.org
mtllib ico.mtl
o Icosphere_Icosphere.002
v 0.000000 -4.914176 0.000000
v 3.555933 -2.197715 2.583506
v -1.358219 -2.197717 4.180240
v -4.395368 -2.197696 0.000000
v -1.358219 -2.197717 -4.180240
v 3.555933 -2.197715 -2.583506
v 1.358219 2.197717 4.180240
v -3.555933 2.197715 2.583506
v -3.555933 2.197715 -2.583506
v 1.358219 2.197717 -4.180240
v 4.395368 2.197696 0.000000
v 0.000000 4.914176 0.000000
v -0.798335 -4.180265 2.457064
v 2.090110 -4.180264 1.518536
v 1.291784 -2.583567 3.975625
v 4.180233 -2.583559 0.000000
v 2.090110 -4.180264 -1.518536
v -2.583528 -4.180252 0.000000
v -3.381883 -2.583560 2.457073
v -0.798335 -4.180265 -2.457064
v -3.381883 -2.583560 -2.457073
v 1.291784 -2.583567 -3.975625
v 4.673665 0.000000 1.518542
v 4.673665 0.000000 -1.518542
v 0.000000 0.000000 4.914175
v 2.888482 0.000000 3.975650
v -4.673665 0.000000 1.518542
v -2.888482 0.000000 3.975650
v -2.888482 0.000000 -3.975650
v -4.673665 0.000000 -1.518542
v 2.888482 0.000000 -3.975650
v 0.000000 0.000000 -4.914175
v 3.381883 2.583560 2.457073
v -1.291784 2.583567 3.975625
v -4.180233 2.583559 0.000000
v -1.291784 2.583567 -3.975625
v 3.381883 2.583560 -2.457073
v 0.798335 4.180265 2.457064
v 2.583528 4.180252 0.000000
v -2.090110 4.180264 1.518536
v -2.090110 4.180264 -1.518536
v 0.798335 4.180265 -2.457064
vt 0.481434 0.093969
vt 0.297579 0.195915
vt 0.558124 0.217432
vt 0.168639 0.393719
vt 0.107258 0.296977
vt 0.712688 0.155603
vt 0.547663 0.095872
vt 0.291114 0.120788
vt 0.066323 0.557144
vt 0.611908 0.430326
vt 0.374269 0.393621
vt 0.491895 0.638392
vt 0.874868 0.325135
vt 0.789380 0.353308
vt 0.903011 0.551645
vt 0.594111 0.223514
vt 0.778919 0.231748
vt 0.731522 0.416787
vt 0.157639 0.265903
vt 0.357342 0.196932
vt 0.214420 0.420185
vt 0.231347 0.616875
vt 0.748448 0.613477
vt 0.896546 0.476517
vt 0.470973 0.395270
vt 0.059857 0.482016
vt 0.368757 0.810148
vt 0.183949 0.801914
vt 0.415205 0.937790
vt 0.805229 0.767759
vt 0.605526 0.836730
vt 0.671754 0.912874
vt 0.794229 0.639943
vt 0.855611 0.736685
vt 0.665289 0.837747
vt 0.289585 0.541955
vt 0.533165 0.579578
vt 0.344714 0.760170
vt 0.088000 0.708527
vt 0.173488 0.680354
vt 0.250180 0.878059
vt 0.404744 0.816230
vt 0.481434 0.939693
vt 0.350960 0.603336
vt 0.611771 0.782224
vt 0.743934 0.579478
vt 0.412598 0.328689
vt 0.679659 0.350744
vn 0.1024 -0.9435 0.3151
vn 0.7002 -0.6617 0.2680
vn -0.2680 -0.9435 0.1947
vn -0.2680 -0.9435 -0.1947
vn 0.1024 -0.9435 -0.3151
vn 0.9050 -0.3304 0.2680
vn 0.0247 -0.3304 0.9435
vn -0.8897 -0.3304 0.3151
vn -0.5746 -0.3304 -0.7488
vn 0.5346 -0.3304 -0.7779
vn 0.8026 -0.1256 0.5831
vn -0.3066 -0.1256 0.9435
vn -0.9921 -0.1256 0.0000
vn -0.3066 -0.1256 -0.9435
vn 0.8026 -0.1256 -0.5831
vn 0.4089 0.6617 0.6284
vn -0.4713 0.6617 0.5831
vn -0.7002 0.6617 -0.2680
vn 0.0385 0.6617 -0.7488
vn 0.7240 0.6617 -0.1947
vn 0.2680 0.9435 -0.1947
vn 0.4911 0.7947 -0.3568
vn 0.4089 0.6617 -0.6284
vn -0.1024 0.9435 -0.3151
vn -0.1876 0.7947 -0.5773
vn -0.4713 0.6617 -0.5831
vn -0.3313 0.9435 0.0000
vn -0.6071 0.7947 0.0000
vn -0.7002 0.6617 0.2680
vn -0.1024 0.9435 0.3151
vn -0.1876 0.7947 0.5773
vn 0.0385 0.6617 0.7488
vn 0.2680 0.9435 0.1947
vn 0.4911 0.7947 0.3568
vn 0.7240 0.6617 0.1947
vn 0.8897 0.3304 -0.3151
vn 0.7947 0.1876 -0.5773
vn 0.5746 0.3304 -0.7488
vn -0.0247 0.3304 -0.9435
vn -0.3035 0.1876 -0.9342
vn -0.5346 0.3304 -0.7779
vn -0.9050 0.3304 -0.2680
vn -0.9822 0.1876 0.0000
vn -0.9050 0.3304 0.2680
vn -0.5346 0.3304 0.7779
vn -0.3035 0.1876 0.9342
vn -0.0247 0.3304 0.9435
vn 0.5746 0.3304 0.7488
vn 0.7947 0.1876 0.5773
vn 0.8897 0.3304 0.3151
vn 0.3066 0.1256 -0.9435
vn 0.3035 -0.1876 -0.9342
vn 0.0247 -0.3304 -0.9435
vn -0.8026 0.1256 -0.5831
vn -0.7947 -0.1876 -0.5773
vn -0.8897 -0.3304 -0.3151
vn -0.8026 0.1256 0.5831
vn -0.7947 -0.1876 0.5773
vn -0.5746 -0.3304 0.7488
vn 0.3066 0.1256 0.9435
vn 0.3035 -0.1876 0.9342
vn 0.5346 -0.3304 0.7779
vn 0.9921 0.1256 0.0000
vn 0.9822 -0.1876 0.0000
vn 0.9050 -0.3304 -0.2680
vn 0.4713 -0.6617 -0.5831
vn 0.1876 -0.7947 -0.5773
vn -0.0385 -0.6617 -0.7488
vn -0.4089 -0.6617 -0.6284
vn -0.4911 -0.7947 -0.3568
vn -0.7240 -0.6617 -0.1947
vn -0.7240 -0.6617 0.1947
vn -0.4911 -0.7947 0.3568
vn -0.4089 -0.6617 0.6284
vn 0.7002 -0.6617 -0.2680
vn 0.6071 -0.7947 0.0000
vn 0.3313 -0.9435 0.0000
vn -0.0385 -0.6617 0.7488
vn 0.1876 -0.7947 0.5773
vn 0.4713 -0.6617 0.5831
usemtl Material.001
s off
f 1/1/1 14/2/1 13/3/1
f 2/4/2 14/2/2 16/5/2
f 1/1/3 13/3/3 18/6/3
f 1/1/4 18/6/4 20/7/4
f 1/1/5 20/7/5 17/8/5
f 2/4/6 16/5/6 23/9/6
f 3/10/7 15/11/7 25/12/7
f 4/13/8 19/14/8 27/15/8
f 5/16/9 21/17/9 29/18/9
f 6/19/10 22/20/10 31/21/10
f 2/4/11 23/9/11 26/22/11
f 3/10/12 25/12/12 28/23/12
f 4/13/13 27/15/13 30/24/13
f 5/16/14 29/18/14 32/25/14
f 6/19/15 31/21/15 24/26/15
f 7/27/16 33/28/16 38/29/16
f 8/30/17 34/31/17 40/32/17
f 9/33/18 35/34/18 41/35/18
f 10/36/19 36/37/19 42/38/19
f 11/39/20 37/40/20 39/41/20
f 39/41/21 42/42/21 12/43/21
f 39/41/22 37/40/22 42/42/22
f 37/40/23 10/44/23 42/42/23
f 42/42/24 41/35/24 12/43/24
f 42/38/25 36/37/25 41/45/25
f 36/37/26 9/46/26 41/45/26
f 41/35/27 40/32/27 12/43/27
f 41/35/28 35/34/28 40/32/28
f 35/34/29 8/30/29 40/32/29
f 40/32/30 38/29/30 12/43/30
f 40/32/31 34/31/31 38/29/31
f 34/31/32 7/27/32 38/29/32
f 38/29/33 39/41/33 12/43/33
f 38/29/34 33/28/34 39/41/34
f 33/28/35 11/39/35 39/41/35
f 24/26/36 37/40/36 11/39/36
f 24/26/37 31/21/37 37/40/37
f 31/21/38 10/44/38 37/40/38
f 32/47/39 36/37/39 10/36/39
f 32/47/40 29/48/40 36/37/40
f 29/48/41 9/46/41 36/37/41
f 30/24/42 35/34/42 9/33/42
f 30/24/43 27/15/43 35/34/43
f 27/15/44 8/30/44 35/34/44
f 28/23/45 34/31/45 8/30/45
f 28/23/46 25/12/46 34/31/46
f 25/12/47 7/27/47 34/31/47
f 26/22/48 33/28/48 7/27/48
f 26/22/49 23/9/49 33/28/49
f 23/9/50 11/39/50 33/28/50
f 31/21/51 32/25/51 10/44/51
f 31/21/52 22/20/52 32/25/52
f 22/20/53 5/16/53 32/25/53
f 29/18/54 30/24/54 9/33/54
f 29/18/55 21/17/55 30/24/55
f 21/17/56 4/13/56 30/24/56
f 27/15/57 28/23/57 8/30/57
f 27/15/58 19/14/58 28/23/58
f 19/14/59 3/10/59 28/23/59
f 25/12/60 26/22/60 7/27/60
f 25/12/61 15/11/61 26/22/61
f 15/11/62 2/4/62 26/22/62
f 23/9/63 24/26/63 11/39/63
f 23/9/64 16/5/64 24/26/64
f 16/5/65 6/19/65 24/26/65
f 17/8/66 22/20/66 6/19/66
f 17/8/67 20/7/67 22/20/67
f 20/7/68 5/16/68 22/20/68
f 20/7/69 21/17/69 5/16/69
f 20/7/70 18/6/70 21/17/70
f 18/6/71 4/13/71 21/17/71
f 18/6/72 19/14/72 4/13/72
f 18/6/73 13/3/73 19/14/73
f 13/3/74 3/10/74 19/14/74
f 16/5/75 17/8/75 6/19/75
f 16/5/76 14/2/76 17/8/76
f 14/2/77 1/1/77 17/8/77
f 13/3/78 15/11/78 3/10/78
f 13/3/79 14/2/79 15/11/79
f 14/2/80 2/4/80 15/11/80
