<svg 
 xmlns="http://www.w3.org/2000/svg"
 xmlns:xlink="http://www.w3.org/1999/xlink"
 width="23px" height="23px">
<path fill-rule="evenodd"  fill="rgb(159, 164, 171)"
 d="M22.998,3.833 C22.998,1.819 21.180,-0.000 19.165,-0.000 L3.831,-0.000 C1.816,-0.000 -0.002,1.819 -0.002,3.833 L-0.002,19.166 C-0.002,21.180 1.816,23.000 3.832,23.000 L11.498,23.000 L11.498,14.311 L8.686,14.311 L8.686,10.477 L11.498,10.477 L11.498,8.984 C11.498,6.408 13.433,4.089 15.810,4.089 L18.909,4.089 L18.909,7.922 L15.810,7.922 C15.472,7.922 15.076,8.334 15.076,8.950 L15.076,10.477 L18.909,10.477 L18.909,14.311 L15.076,14.311 L15.076,23.000 L19.165,23.000 C21.180,23.000 22.998,21.180 22.998,19.166 L22.998,3.833 Z"/>
</svg>