<?xml version="1.0" encoding="utf-8"?>
<!-- Generator: Adobe Illustrator 22.1.0, SVG Export Plug-In . SVG Version: 6.00 Build 0)  -->
<svg version="1.1" id="Layer_1" xmlns="http://www.w3.org/2000/svg" xmlns:xlink="http://www.w3.org/1999/xlink" x="0px" y="0px"
	 viewBox="0 0 512 512" style="enable-background:new 0 0 512 512;" xml:space="preserve">
<style type="text/css">
	.st0{fill:#A0A4AA;}
</style>
<g>
	<path class="st0" d="M264.6,157.1c-55.2,0-100,44.8-100,100s44.6,100,100,100c55.2,0,99.8-44.8,100-100
		C364.6,201.9,319.8,157.1,264.6,157.1z"/>
	<path class="st0" d="M393.3,0H117C52.4,0,0,52.4,0,117v278.1C0,459.7,52.3,512,116.9,512h278.2c64.6,0,116.9-52.3,116.9-116.9
		V118.7C512,53.1,458.9,0,393.3,0z M264.6,423.3c-91.8,0-166.2-74.4-166.2-166.2S172.6,90.9,264.6,90.9
		c91.8,0,166.1,74.4,166.2,166.2C430.8,348.9,356.4,423.3,264.6,423.3z M419.1,130.6c-23.3,0-42.3-18.9-42.3-42.3
		s18.9-42.4,42.3-42.4c23.3,0,42.3,18.9,42.3,42.4C461.4,111.7,442.5,130.6,419.1,130.6z"/>
</g>
</svg>
