<svg 
 xmlns="http://www.w3.org/2000/svg"
 xmlns:xlink="http://www.w3.org/1999/xlink"
 width="23px" height="23px">
<path fill-rule="evenodd"  fill="rgb(159, 164, 171)"
 d="M19.164,23.000 L3.831,23.000 C1.816,23.000 -0.002,21.180 -0.002,19.166 L-0.002,3.833 C-0.002,1.819 1.816,-0.000 3.831,-0.000 L19.164,-0.000 C21.179,-0.000 22.998,1.819 22.998,3.833 L22.998,19.166 C22.998,21.180 21.179,23.000 19.164,23.000 ZM18.107,5.077 L2.727,11.070 C2.229,11.264 2.259,11.979 2.773,12.131 L6.681,13.285 L8.139,17.913 C8.292,18.396 8.904,18.543 9.259,18.181 L11.280,16.118 L15.244,19.028 C15.729,19.384 16.420,19.120 16.545,18.531 L19.170,5.976 C19.299,5.361 18.693,4.849 18.107,5.077 ZM9.035,14.180 C8.965,14.243 8.919,14.331 8.908,14.425 L8.634,16.870 C8.624,16.950 8.513,16.961 8.489,16.884 L7.358,13.237 C7.305,13.070 7.373,12.889 7.521,12.797 L15.958,7.565 C16.152,7.445 16.351,7.712 16.180,7.863 L9.035,14.180 Z"/>
</svg>