<?xml version="1.0" encoding="utf-8"?>
<!-- Generator: Adobe Illustrator 22.1.0, SVG Export Plug-In . SVG Version: 6.00 Build 0)  -->
<svg version="1.1" id="Layer_1" xmlns="http://www.w3.org/2000/svg" xmlns:xlink="http://www.w3.org/1999/xlink" x="0px" y="0px"
	 viewBox="0 0 23 23" style="enable-background:new 0 0 23 23;" xml:space="preserve">
<style type="text/css">
	.st0{fill:#9FA4AB;}
</style>
<g>
	<g>
		<path class="st0" d="M19.2,0H3.8C1.8,0,0,1.8,0,3.8v15.3c0,2,1.8,3.8,3.8,3.8h15.3c2,0,3.8-1.8,3.8-3.8V3.8C23,1.8,21.2,0,19.2,0z
			 M18.8,16.5h-1.7c-0.6,0-0.8-0.5-2-1.7c-1-1-1.4-1.1-1.7-1.1c-0.3,0-0.4,0.1-0.4,0.6v1.5c0,0.4-0.1,0.7-1.2,0.7
			c-1.8,0-3.7-1.1-5.1-3.1c-2.1-2.9-2.6-5.2-2.6-5.6c0-0.3,0.1-0.5,0.6-0.5h1.7c0.4,0,0.6,0.2,0.7,0.7c0.8,2.4,2.2,4.5,2.8,4.5
			c0.2,0,0.3-0.1,0.3-0.6V9.3c-0.1-1.1-0.7-1.2-0.7-1.6c0-0.2,0.2-0.4,0.4-0.4h2.6c0.4,0,0.5,0.2,0.5,0.6v3.3c0,0.4,0.2,0.5,0.3,0.5
			c0.2,0,0.4-0.1,0.8-0.5c1.2-1.4,2.1-3.5,2.1-3.5c0.1-0.3,0.3-0.5,0.7-0.5h1.7c0.5,0,0.6,0.3,0.5,0.6c-0.2,1-2.2,3.9-2.2,3.9
			c-0.2,0.3-0.2,0.4,0,0.8c0.2,0.3,0.8,0.8,1.2,1.2c0.7,0.8,1.3,1.5,1.4,2C19.5,16.2,19.2,16.5,18.8,16.5z"/>
	</g>
</g>
</svg>
