<svg 
 xmlns="http://www.w3.org/2000/svg"
 xmlns:xlink="http://www.w3.org/1999/xlink"
 width="23px" height="23px">
<path fill-rule="evenodd"  fill="rgb(159, 164, 171)"
 d="M19.165,23.000 L3.831,23.000 C1.816,23.000 -0.003,21.180 -0.003,19.166 L-0.003,3.833 C-0.003,1.819 1.816,-0.000 3.831,-0.000 L19.165,-0.000 C21.180,-0.000 22.998,1.819 22.998,3.833 L22.998,19.166 C22.998,21.180 21.180,23.000 19.165,23.000 ZM15.989,10.333 L8.738,6.568 C8.392,6.388 7.978,6.402 7.645,6.604 C7.312,6.807 7.109,7.168 7.109,7.557 L7.109,15.111 C7.109,15.502 7.313,15.863 7.647,16.065 C7.824,16.172 8.025,16.226 8.224,16.226 C8.402,16.226 8.579,16.184 8.741,16.100 L15.992,12.310 C16.360,12.118 16.591,11.736 16.591,11.321 C16.590,10.905 16.358,10.524 15.989,10.333 Z"/>
</svg>