<?xml version="1.0" encoding="utf-8"?>
<!-- Generator: Adobe Illustrator 22.1.0, SVG Export Plug-In . SVG Version: 6.00 Build 0)  -->
<svg version="1.1" id="Layer_1" xmlns="http://www.w3.org/2000/svg" xmlns:xlink="http://www.w3.org/1999/xlink" x="0px" y="0px"
	 viewBox="0 0 512 512" style="enable-background:new 0 0 512 512;" xml:space="preserve">
<style type="text/css">
	.st0{fill:url(#SVGID_1_);}
	.st1{fill:#FFFFFF;}
</style>
<g>
	
		<radialGradient id="SVGID_1_" cx="179.9202" cy="420.4185" r="47.7212" gradientTransform="matrix(14.2175 0 0 -14.2171 -2408.0464 6528.7705)" gradientUnits="userSpaceOnUse">
		<stop  offset="9.693880e-02" style="stop-color:#FFD87A"/>
		<stop  offset="0.1426" style="stop-color:#FCCE78"/>
		<stop  offset="0.2263" style="stop-color:#F5B471"/>
		<stop  offset="0.3378" style="stop-color:#EB8D65"/>
		<stop  offset="0.449" style="stop-color:#E36058"/>
		<stop  offset="0.6786" style="stop-color:#CD3694"/>
		<stop  offset="1" style="stop-color:#6668B0"/>
	</radialGradient>
	<path class="st0" d="M512,395.1c0,64.6-52.3,116.9-116.9,116.9H116.9C52.3,512,0,459.7,0,395.1V117C0,52.4,52.4,0,117,0h276.3
		C458.9,0,512,53.1,512,118.7V395.1z"/>
	<g>
		<path class="st1" d="M332.8,56H179.2c-68.1,0-123.3,55.2-123.3,123.3v153.5C55.9,400.9,111,456,179.2,456h153.5
			c68.1,0,123.2-55.1,123.2-123.2V179.3C456.1,111.1,400.9,56,332.8,56z M417.6,318c0,55-44.6,99.6-99.6,99.6H194
			c-55,0-99.6-44.6-99.6-99.6l0-124.1c0-55,44.6-99.6,99.6-99.6h124.1c55,0,99.6,44.7,99.6,99.6V318z"/>
		<path class="st1" d="M261.4,151.3c-58.3,0-105.4,47.2-105.4,105.4c0,58.2,47.2,105.4,105.4,105.4c58.2,0,105.4-47.2,105.4-105.4
			C366.7,198.5,319.6,151.3,261.4,151.3z M261.4,320.1c-35.1,0-63.4-28.4-63.4-63.4s28.4-63.4,63.4-63.4c35,0,63.4,28.4,63.4,63.4
			C324.7,291.7,296.4,320.1,261.4,320.1z"/>
		<path class="st1" d="M386.2,149.7c0,14.8-12,26.8-26.8,26.8c-14.8,0-26.8-12-26.8-26.8c0-14.8,12-26.9,26.8-26.9
			S386.2,134.8,386.2,149.7z"/>
	</g>
</g>
</svg>
