<?xml version="1.0" encoding="utf-8"?>
<!-- Generator: Adobe Illustrator 22.1.0, SVG Export Plug-In . SVG Version: 6.00 Build 0)  -->
<svg version="1.1" id="Layer_1" xmlns="http://www.w3.org/2000/svg" xmlns:xlink="http://www.w3.org/1999/xlink" x="0px" y="0px"
	 viewBox="0 0 512 512" style="enable-background:new 0 0 512 512;" xml:space="preserve">
<style type="text/css">
	.st0{fill:#9FA4AB;}
</style>
<g>
	<path class="st0" d="M261.4,193.2c-35.1,0-63.4,28.4-63.4,63.4c0,35.1,28.4,63.4,63.4,63.4c35,0,63.3-28.4,63.4-63.4
		C324.8,221.6,296.4,193.2,261.4,193.2z"/>
	<path class="st0" d="M318.1,94.4H194c-55,0-99.6,44.6-99.6,99.6V318c0,55,44.6,99.6,99.6,99.6h124.1c55,0,99.6-44.6,99.6-99.6V194
		C417.6,139,373.1,94.4,318.1,94.4z M261.4,362.2c-58.3,0-105.4-47.3-105.4-105.4c0-58.3,47.2-105.4,105.4-105.4
		c58.2,0,105.3,47.2,105.4,105.4C366.8,315,319.6,362.2,261.4,362.2z M359.5,176.5c-14.8,0-26.8-12-26.8-26.8
		c0-14.8,12-26.9,26.8-26.9s26.8,12,26.8,26.9C386.2,164.5,374.3,176.5,359.5,176.5z"/>
	<path class="st0" d="M393.3,0H117C52.4,0,0,52.4,0,117v278.1C0,459.7,52.3,512,116.9,512h278.2c64.6,0,116.9-52.3,116.9-116.9
		V118.7C512,53.1,458.9,0,393.3,0z M455.9,332.8c0,68.1-55.1,123.2-123.2,123.2H179.2C111,456,55.9,400.9,55.9,332.8V179.3
		C55.9,111.2,111.1,56,179.2,56l153.7,0c68.1,0,123.2,55.1,123.1,123.3V332.8z"/>
</g>
</svg>
