<svg xmlns="http://www.w3.org/2000/svg" viewBox="0 0 2969.79 2465.81">
  <defs>
    <style>.cls-1,.cls-4,.cls-7{fill:#4D4D4D;}.cls-2{fill:none;}.cls-3,.cls-4,.cls-7{isolation:isolate;}.cls-4,.cls-7{font-size:300px;font-family:SFCompactText-MediumItalic, SF Compact Text;font-style:italic;}.cls-4,.cls-8{letter-spacing:0.3em;}.cls-5,.cls-7{letter-spacing:0.29em;}.cls-6{letter-spacing:0.29em;}.cls-9{letter-spacing:0.29em;}</style>
  </defs>
  <title>logo3</title>
  <polygon class="cls-1" points="519.2 1101.6 411.3 1303 303.5 1101.6 0 1668 215.8 1668 606.9 1668 822.7 1668 519.2 1101.6"/>
  <circle class="cls-1" cx="2034.4" cy="1410.9" r="277.4"/>
  <polygon class="cls-1" points="2852.6 75.1 2168.5 75.1 2168.5 314.3 2391 314.3 2391 886.4 2630.2 886.4 2630.2 314.3 2852.6 314.3 2852.6 75.1"/>
  <polygon class="cls-1" points="1733 1149.6 1295.6 1149.6 1295.6 1302.6 1437.8 1302.6 1437.8 1668.3 1590.7 1668.3 1590.7 1302.6 1733 1302.6 1733 1149.6"/>
  <polygon class="cls-1" points="2862 1515.4 2640.4 1101.6 2418.7 1515.4 2336.9 1515.4 2336.9 1668.3 2943.8 1668.3 2943.8 1515.4 2862 1515.4"/>
  <polygon class="cls-1" points="1225.6 1303.3 1225.6 1150 1018.1 1150 865.4 1150 865.2 1150 865.2 1668.8 865.4 1668.8 1018.1 1668.8 1225.6 1668.8 1225.6 1515.5 1018.1 1515.5 1018.1 1485.8 1225.6 1485.8 1225.6 1332.9 1018.1 1332.9 1018.1 1303.3 1225.6 1303.3"/>
  <path class="cls-1" d="M3610.9-1027.1H3211.5v811.6h239.3V-484.6h160.1c149.8,0,271.2-121.4,271.2-271.2s-121.4-271.2-271.2-271.3Z" transform="translate(-1780.4 1101.6)"/>
  <path class="cls-1" d="M2646.9-466.9a50,50,0,0,1-20.8-67.5,50,50,0,0,1,67.5-20.8,50,50,0,0,1,20.8,67.5,50.24,50.24,0,0,1-20.8,20.8v251.3h451.3l-474.7-886-474.7,886h451.3V-466.9Z" transform="translate(-1780.4 1101.6)"/>
  <rect class="cls-2" x="40.6" y="1822.9" width="2882.1" height="634.9"/>
  <g class="cls-3">
    <text class="cls-4" transform="translate(233.4 2033.45)">ма<tspan class="cls-5" x="565.84" y="0">с</tspan>
    <tspan x="810.38" y="0">терс</tspan>
    <tspan class="cls-6" x="1817.7" y="0">к</tspan>
    <tspan x="2068.54" y="0">ая </tspan>
    </text>
    <text class="cls-7" transform="translate(756.5 2393.45)">с<tspan class="cls-8" x="244.54" y="0">т</tspan>
    <tspan class="cls-9" x="478.97" y="0">у</tspan>
    <tspan class="cls-8" x="728.35" y="0">дия</tspan>
    </text>
  </g>
</svg>