<svg id="Layer_2" data-name="Layer 2" xmlns="http://www.w3.org/2000/svg" viewBox="0 0 4724.19 586.73">
<defs>
<style>.cls-1{fill:#4D4D4D;}</style>
</defs>
<title>logo</title>
<polygon class="cls-1" points="2299.63 0 2191.74 201.39 2083.85 0 1780.42 566.41 1996.19 566.41 2387.29 566.41 2603.06 566.41 2299.63 0"/>
<circle class="cls-1" cx="3814.78" cy="309.3" r="277.43"/>
<polygon class="cls-1" points="1558.14 48.04 1120.81 48.04 1120.81 200.99 1263.02 200.99 1263.02 566.69 1415.93 566.69 1415.93 200.99 1558.14 200.99 1558.14 48.04"/>
<polygon class="cls-1" points="3513.35 48.04 3076.02 48.04 3076.02 200.99 3218.22 200.99 3218.22 566.69 3371.14 566.69 3371.14 200.99 3513.35 200.99 3513.35 48.04"/>
<polygon class="cls-1" points="4642.42 413.76 4420.76 0 4199.1 413.76 4117.32 413.76 4117.32 566.71 4724.19 566.71 4724.19 413.76 4642.42 413.76"/>
<polygon class="cls-1" points="3006 201.67 3006 48.37 2798.49 48.37 2645.79 48.37 2645.58 48.37 2645.58 567.17 2645.79 567.17 2798.49 567.17 3006 567.17 3006 413.87 2798.49 413.87 2798.49 384.22 3006 384.22 3006 231.31 2798.49 231.31 2798.49 201.67 3006 201.67"/>
<path class="cls-1" d="M1094,391.9H838.65V910.71h153v-172H1094a173.39,173.39,0,0,0,0-346.78Z" transform="translate(-189.26 -344.21)"/>
<path class="cls-1" d="M477.77,750a31.9,31.9,0,1,1,29.85,0V910.62H796.13L492.69,344.21,189.26,910.62H477.77Z" transform="translate(-189.26 -344.21)"/>
</svg>