<?xml version="1.0" encoding="utf-8"?>
<!-- Generator: Adobe Illustrator 22.1.0, SVG Export Plug-In . SVG Version: 6.00 Build 0)  -->
<svg version="1.1" id="Layer_1" xmlns="http://www.w3.org/2000/svg" xmlns:xlink="http://www.w3.org/1999/xlink" x="0px" y="0px"
	 viewBox="0 0 512 512" style="enable-background:new 0 0 512 512;" xml:space="preserve">
<style type="text/css">
	.st0{fill:url(#SVGID_1_);}
	.st1{fill:#FFFFFF;}
</style>
<g>
	
		<radialGradient id="SVGID_1_" cx="134.3667" cy="242.3585" r="47.7212" gradientTransform="matrix(14.2175 0 0 14.2171 -1760.3889 -2893.9958)" gradientUnits="userSpaceOnUse">
		<stop  offset="9.693880e-02" style="stop-color:#FFD87A"/>
		<stop  offset="0.1426" style="stop-color:#FCCE78"/>
		<stop  offset="0.2263" style="stop-color:#F5B471"/>
		<stop  offset="0.3378" style="stop-color:#EB8D65"/>
		<stop  offset="0.449" style="stop-color:#E36058"/>
		<stop  offset="0.6786" style="stop-color:#CD3694"/>
		<stop  offset="1" style="stop-color:#6668B0"/>
	</radialGradient>
	<path class="st0" d="M512,395.1c0,64.6-52.3,116.9-116.9,116.9H116.9C52.3,512,0,459.7,0,395.1V117C0,52.4,52.4,0,117,0h276.3
		C458.9,0,512,53.1,512,118.7V395.1z"/>
	<g>
		<path class="st1" d="M264.6,90.9c-91.9,0-166.2,74.4-166.2,166.2s74.4,166.2,166.2,166.2s166.2-74.4,166.2-166.2
			C430.6,165.3,356.4,90.9,264.6,90.9z M264.6,357.1c-55.4,0-100-44.8-100-100s44.8-100,100-100s100,44.8,100,100
			C364.4,312.3,319.8,357.1,264.6,357.1z"/>
		<path class="st1" d="M461.4,88.4c0,23.3-18.9,42.3-42.3,42.3s-42.3-18.9-42.3-42.3s18.9-42.4,42.3-42.4S461.4,64.9,461.4,88.4z"/>
	</g>
</g>
</svg>
