<svg 
 xmlns="http://www.w3.org/2000/svg"
 xmlns:xlink="http://www.w3.org/1999/xlink"
 width="23px" height="23px">
<path fill-rule="evenodd"  fill="rgb(255, 255, 255)"
 d="M0.997,1.000 L21.997,1.000 L21.997,22.000 L0.997,22.000 L0.997,1.000 Z"/>
<path fill-rule="evenodd"  fill="rgb(29, 161, 242)"
 d="M19.165,23.000 L3.832,23.000 C1.817,23.000 -0.003,21.180 -0.003,19.166 L-0.003,3.833 C-0.003,1.819 1.817,-0.000 3.831,-0.000 L19.165,-0.000 C21.179,-0.000 22.998,1.819 22.998,3.833 L22.998,19.166 C22.998,21.180 21.179,23.000 19.165,23.000 ZM17.708,7.360 C18.283,6.900 18.743,6.440 18.973,5.635 C18.398,5.865 17.823,6.210 17.018,6.325 C15.293,4.140 10.923,5.865 11.728,9.085 C8.738,8.855 6.898,7.475 5.403,5.865 C4.598,7.245 5.288,9.430 6.323,10.005 C5.863,10.005 5.403,9.890 5.058,9.660 C5.173,11.500 6.093,12.305 7.473,12.765 C7.128,12.765 6.669,12.880 6.208,12.765 C6.669,14.030 7.588,14.835 9.083,14.950 C8.048,15.870 6.093,16.445 4.598,16.215 C5.979,17.020 7.473,17.710 9.543,17.595 C14.603,17.365 17.938,13.685 18.053,8.395 C18.629,7.935 19.204,7.475 19.318,6.900 C18.858,7.130 18.283,7.245 17.708,7.360 Z"/>
</svg>