<?xml version="1.0" encoding="utf-8"?>
<!-- Generator: Adobe Illustrator 22.1.0, SVG Export Plug-In . SVG Version: 6.00 Build 0)  -->
<svg version="1.1" id="Layer_1" xmlns="http://www.w3.org/2000/svg" xmlns:xlink="http://www.w3.org/1999/xlink" x="0px" y="0px"
	 viewBox="0 0 23 23" style="enable-background:new 0 0 23 23;" xml:space="preserve">
<style type="text/css">
	.st0{fill:#5376a4;}
	.st1{fill:#FFFFFF;}
</style>
<path class="st0" d="M19.2,23c2,0,3.8-1.8,3.8-3.8V3.8c0-2-1.8-3.8-3.8-3.8H3.8C1.8,0,0,1.8,0,3.8v15.3c0,2,1.8,3.8,3.8,3.8"/>
<path class="st1" d="M19,7.9c0.1-0.4,0-0.6-0.5-0.6h-1.7c-0.4,0-0.6,0.2-0.7,0.5c0,0-0.8,2.1-2.1,3.5c-0.4,0.4-0.6,0.5-0.8,0.5
	c-0.1,0-0.3-0.1-0.3-0.5V7.9c0-0.4-0.1-0.6-0.5-0.6H9.9c-0.3,0-0.4,0.2-0.4,0.4c0,0.4,0.6,0.5,0.7,1.6v2.5c0,0.5-0.1,0.6-0.3,0.6
	c-0.6,0-1.9-2.1-2.8-4.5C6.9,7.5,6.8,7.3,6.4,7.3H4.7c-0.5,0-0.6,0.2-0.6,0.5c0,0.4,0.6,2.7,2.6,5.6c1.4,2,3.3,3.1,5.1,3.1
	c1.1,0,1.2-0.2,1.2-0.7v-1.5c0-0.5,0.1-0.6,0.4-0.6c0.2,0,0.7,0.1,1.7,1.1c1.1,1.1,1.3,1.7,2,1.7h1.7c0.5,0,0.7-0.2,0.6-0.7
	c-0.2-0.5-0.7-1.2-1.4-2c-0.4-0.5-1-1-1.2-1.2c-0.2-0.3-0.2-0.5,0-0.8C16.8,11.8,18.8,8.9,19,7.9z"/>
</svg>
