<svg 
 xmlns="http://www.w3.org/2000/svg"
 xmlns:xlink="http://www.w3.org/1999/xlink"
 width="23px" height="23px">
<path fill-rule="evenodd"  fill="rgb(255, 255, 255)"
 d="M18.165,22.000 L4.831,22.000 C2.816,22.000 0.997,20.180 0.997,18.166 L0.997,4.833 C0.997,2.819 2.816,1.000 4.831,1.000 L18.165,1.000 C20.180,1.000 21.998,2.819 21.998,4.833 L21.998,18.166 C21.998,20.180 20.180,22.000 18.165,22.000 Z"/>
<path fill-rule="evenodd"  fill="rgb(255, 0, 0)"
 d="M19.165,23.000 L3.831,23.000 C1.816,23.000 -0.003,21.180 -0.003,19.166 L-0.003,3.833 C-0.003,1.819 1.816,-0.000 3.831,-0.000 L19.165,-0.000 C21.180,-0.000 22.998,1.819 22.998,3.833 L22.998,19.166 C22.998,21.180 21.180,23.000 19.165,23.000 ZM15.989,10.333 L8.738,6.568 C8.392,6.388 7.978,6.402 7.645,6.604 C7.312,6.807 7.109,7.168 7.109,7.557 L7.109,15.111 C7.109,15.502 7.313,15.863 7.647,16.065 C7.824,16.172 8.025,16.226 8.224,16.226 C8.402,16.226 8.579,16.184 8.741,16.100 L15.992,12.310 C16.360,12.118 16.591,11.736 16.591,11.321 C16.590,10.905 16.358,10.524 15.989,10.333 Z"/>
</svg>